<svg width="33" height="32" viewBox="0 0 33 32" fill="none" xmlns="http://www.w3.org/2000/svg">
<g clip-path="url(#clip0_139_2086)">
<path d="M5.47852 1H27.5215C30.0016 1 32 2.9945 32 5.44V26.5088C32 28.9543 30.0016 30.9488 27.5215 30.9488H5.47852C2.99844 30.9488 1 28.9543 1 26.5088V5.44C1 2.9945 2.99844 1 5.47852 1Z" stroke="black" stroke-width="2"/>
<path d="M13.2571 19.1147H8.14325L7.10272 22.3302C7.08938 22.3853 7.05817 22.4346 7.0139 22.4704C6.96962 22.5061 6.91473 22.5265 6.85767 22.5282L4.24706 22.5281C4.09925 22.5281 4.0476 22.4475 4.09212 22.2862L8.51966 9.67704L8.56387 9.54456L8.57857 9.49925L8.60822 9.40453C8.62291 9.35563 8.63761 9.30379 8.65243 9.2476C8.71044 8.95435 8.74009 8.65624 8.74099 8.35736C8.738 8.33646 8.73995 8.31516 8.74667 8.29514C8.7534 8.27512 8.76473 8.25693 8.77976 8.242C8.79479 8.22708 8.81311 8.21583 8.83328 8.20915C8.85344 8.20246 8.87489 8.20053 8.89594 8.2035H12.4158C12.519 8.2035 12.578 8.24015 12.593 8.31345L17.6181 22.3083C17.6624 22.4549 17.6181 22.5282 17.4853 22.5281H14.6074C14.558 22.5335 14.5083 22.5208 14.4676 22.4925C14.4269 22.4642 14.3979 22.4222 14.3861 22.3743L13.2571 19.1147ZM8.94028 16.4036H12.438L12.3881 16.2401L12.3081 15.9813L12.1909 15.6106L11.966 14.9108L11.7517 14.2383L11.3531 12.9853C11.243 12.6394 11.1373 12.2922 11.036 11.9437L10.9229 11.5474L10.8007 11.1131L10.689 10.7103H10.6668C10.556 11.2379 10.4212 11.7602 10.2626 12.2757L10.1131 12.7522L9.75342 13.9042L9.57115 14.4911C9.53823 14.5971 9.50536 14.7019 9.47253 14.8055L9.37456 15.1124L9.27711 15.4122L9.18017 15.7046L9.08375 15.9896C9.03571 16.1304 8.98789 16.2684 8.94028 16.4036ZM25.7649 17.8633H21.4038C21.4572 18.2917 21.6005 18.7043 21.8245 19.0743C22.072 19.4407 22.4221 19.7273 22.8316 19.8986C23.3866 20.1372 23.9869 20.254 24.5916 20.2411C25.0713 20.2319 25.5492 20.1798 26.0195 20.0855C26.4401 20.0292 26.8522 19.9225 27.247 19.7678C27.3208 19.7093 27.3578 19.7459 27.3579 19.8776V21.9659C27.3615 22.0229 27.35 22.0797 27.3245 22.1308C27.2992 22.1707 27.2652 22.2045 27.225 22.2297C26.787 22.4223 26.3261 22.5587 25.8534 22.6355C25.2113 22.7552 24.5586 22.8104 23.9053 22.8002C22.89 22.8002 22.0342 22.649 21.3378 22.3465L21.2708 22.3167C20.6013 22.0239 20.0101 21.5798 19.5442 21.0198C19.1091 20.4921 18.7853 19.8828 18.5923 19.2283C18.4013 18.5822 18.3044 17.9123 18.3047 17.2389C18.3026 16.5036 18.4184 15.7727 18.6478 15.0736C18.8687 14.3918 19.218 13.7577 19.6771 13.2052C20.1301 12.6593 20.6965 12.2169 21.3375 11.9082C21.9868 11.5933 22.7543 11.4803 23.6397 11.4803C24.3741 11.4621 25.1035 11.6047 25.7761 11.898C26.3416 12.1374 26.8394 12.5107 27.226 12.9853C27.5888 13.45 27.8661 13.9746 28.0451 14.535C28.2194 15.0751 28.309 15.6386 28.3108 16.2057C28.3108 16.5282 28.2997 16.8214 28.2776 17.085L28.2579 17.3108L28.2373 17.5251L28.225 17.6336L28.2222 17.6566C28.2165 17.705 28.193 17.7497 28.1563 17.7821C28.1196 17.8145 28.0722 17.8324 28.023 17.8324L27.9623 17.8337L27.8867 17.8376L27.8278 17.8418L27.6901 17.8534L27.5692 17.8653C27.5363 17.8687 27.5021 17.8719 27.4667 17.8749L27.357 17.8835L27.2398 17.8912L27.1154 17.8976L26.9837 17.9031L26.915 17.9054L26.7723 17.9092C26.6311 17.9127 26.4865 17.904 26.3381 17.8932L26.113 17.8768C25.9972 17.8684 25.881 17.8639 25.7649 17.8633ZM21.404 15.8607H24.4186L24.6754 15.8591L24.8499 15.8566L24.9629 15.8541L25.0898 15.8497C25.2033 15.8384 25.3129 15.8024 25.4108 15.7441V15.6123C25.4064 15.4403 25.3766 15.27 25.3223 15.1067C25.2029 14.7316 24.9628 14.4059 24.6388 14.1795C24.3149 13.9531 23.9251 13.8386 23.5292 13.8536C23.1567 13.8312 22.7856 13.917 22.4613 14.1005C22.137 14.2839 21.8734 14.5571 21.7028 14.8868C21.551 15.1934 21.4501 15.5222 21.404 15.8607Z" fill="black"/>
</g>
<defs>
<clipPath id="clip0_139_2086">
<rect width="33" height="32" fill="white"/>
</clipPath>
</defs>
</svg>
