<svg width="36" height="32" viewBox="0 0 36 32" fill="none" xmlns="http://www.w3.org/2000/svg">
<rect x="1" y="1" width="34" height="30" rx="5" stroke="black" stroke-width="2"/>
<path fill-rule="evenodd" clip-rule="evenodd" d="M14 9C14.8125 8.99995 15.6058 9.24734 16.2742 9.70924C16.9426 10.1711 17.4546 10.8256 17.7419 11.5857C18.0292 12.3457 18.0782 13.1752 17.8824 13.9638C17.6866 14.7523 17.2554 15.4626 16.646 16C17.2554 16.5374 17.6866 17.2477 17.8824 18.0362C18.0782 18.8248 18.0292 19.6543 17.7419 20.4143C17.4546 21.1744 16.9426 21.8289 16.2742 22.2908C15.6058 22.7527 14.8125 23.0001 14 23H10C9.46957 23 8.96086 22.7893 8.58579 22.4142C8.21071 22.0391 8 21.5304 8 21V11C8 10.4696 8.21071 9.96086 8.58579 9.58579C8.96086 9.21071 9.46957 9 10 9H14ZM23.5 13C26.107 13 28 15.368 28 18C28 18.2449 27.91 18.4813 27.7473 18.6644C27.5845 18.8474 27.3603 18.9643 27.117 18.993L27 19H21.14C21.498 20.224 22.493 21 23.5 21C24.58 21 25.192 20.489 25.74 19.85C25.9124 19.6484 26.1578 19.5236 26.4222 19.503C26.6866 19.4824 26.9484 19.5676 27.15 19.74C27.3516 19.9124 27.4764 20.1578 27.497 20.4222C27.5176 20.6866 27.4324 20.9484 27.26 21.15L27.153 21.272L26.924 21.518C26.202 22.26 25.146 23 23.5 23C20.893 23 19 20.632 19 18C19 15.368 20.893 13 23.5 13ZM14 17H10V21H14C14.519 21.0023 15.0185 20.8028 15.3932 20.4436C15.7678 20.0844 15.9881 19.5937 16.0075 19.0751C16.027 18.5564 15.8441 18.0506 15.4975 17.6643C15.1509 17.278 14.6677 17.0416 14.15 17.005L14 17ZM23.5 15C22.493 15 21.498 15.776 21.14 17H25.86C25.502 15.776 24.507 15 23.5 15ZM14 11H10V15H14C14.5304 15 15.0391 14.7893 15.4142 14.4142C15.7893 14.0391 16 13.5304 16 13C16 12.4696 15.7893 11.9609 15.4142 11.5858C15.0391 11.2107 14.5304 11 14 11ZM25 10C25.2652 10 25.5196 10.1054 25.7071 10.2929C25.8946 10.4804 26 10.7348 26 11C26 11.2652 25.8946 11.5196 25.7071 11.7071C25.5196 11.8946 25.2652 12 25 12H22C21.7348 12 21.4804 11.8946 21.2929 11.7071C21.1054 11.5196 21 11.2652 21 11C21 10.7348 21.1054 10.4804 21.2929 10.2929C21.4804 10.1054 21.7348 10 22 10H25Z" fill="black"/>
</svg>
