<?xml version="1.0" encoding="UTF-8"?>
<svg id="Layer_1" xmlns="http://www.w3.org/2000/svg" version="1.1" viewBox="0 0 31 34">
  <!-- Generator: Adobe Illustrator 30.1.0, SVG Export Plug-In . SVG Version: 2.1.1 Build 136)  -->
  <defs>
    <style>
      .st0 {
        fill: none;
        stroke: #000;
        stroke-miterlimit: 10;
        stroke-width: 2px;
      }

      .st1 {
        fill: #555;
      }

      .st2 {
        fill: #565656;
      }
    </style>
  </defs>
  <g>
    <path class="st1" d="M9.3,28.1h-.2c0,0,.2,0,.2,0Z"/>
    <path class="st2" d="M21.9,28.1h0s-.2,0-.2,0c0,0,.1,0,.2,0Z"/>
    <path d="M23.2,10.5l-4.2-3.9c-.4-.3-.9-.6-1.4-.6h-8.5c-1.2.2-2.1,1.1-2.1,2.4v17.4c0,1.2.9,2.2,2,2.4,0,0,.1,0,.2,0h12.4c0,0,.1,0,.2,0,1.1-.1,2-1.1,2-2.3v-13.5c0-.7-.3-1.3-.8-1.8ZM18.5,7.8l3.4,3.3h-3.2c-.2,0-.2,0-.2-.2v-3ZM22.7,25.7c0,.6-.5,1.1-1.1,1.1h-12.2c-.6,0-1.1-.5-1.1-1.1V8.3c0-.6.5-1.1,1-1.1h7.8s0,3.7,0,3.7c0,.9.7,1.5,1.5,1.5h4s0,13.3,0,13.3Z"/>
    <path d="M20.2,15.9h-9.6c-.4,0-.6-.3-.7-.6s.3-.7.7-.7h9.6c.4,0,.6.3.7.6s-.2.7-.6.7Z"/>
    <path d="M20.2,19.3h-9.6c-.4,0-.6-.3-.7-.6s.3-.7.7-.7h9.6c.4,0,.6.3.7.6s-.2.7-.6.7Z"/>
    <path d="M13.8,22.8h-3.2c-.4,0-.6-.3-.6-.6s.3-.7.6-.7h3.2c.4,0,.6.3.6.6s-.2.7-.6.7Z"/>
  </g>
  <rect class="st0" x="1" y="1" width="29" height="32" rx="8" ry="8"/>
</svg>