<?xml version="1.0" encoding="UTF-8"?>
<svg id="Layer_1" xmlns="http://www.w3.org/2000/svg" version="1.1" viewBox="0 0 31 34">
  <!-- Generator: Adobe Illustrator 29.3.1, SVG Export Plug-In . SVG Version: 2.1.0 Build 151)  -->
  <defs>
    <style>
      .st0 {
        fill: none;
        stroke: #000;
        stroke-miterlimit: 10;
        stroke-width: 2px;
      }
    </style>
  </defs>
  <rect class="st0" x="1" y="1" width="29" height="32" rx="8" ry="8"/>
  <path d="M19.4,6.4c.2,0,.4,0,.6.1,2.8.8,3.8,4.2,1.9,6.4l-.8.8c2,1.3,2.4,4.1.8,5.9s-4,1.9-5.8.4v4c0,.6-.5,1.6-.8,2.1-.6.9-1.6,1.4-2.7,1.6-.3,0-.7,0-1,0-.9,0-1.9-.5-2.5-1.2-1.7-1.9-1.4-4.6.6-6.1-2.2-1.7-2.3-4.9,0-6.6-.6-.5-1.1-1-1.4-1.8-.9-2.3.6-5.5,3.3-5.5h7.8ZM14.9,7.7h-3.1c-1.1,0-2.2,1.3-2.3,2.3-.1,1.4.9,3,2.4,3h3v-5.3h0ZM19.3,7.7h-3.1v5.3h3c1,0,2-1,2.3-1.8.5-1.5-.5-3.3-2.1-3.5h0ZM14.9,14.3h-3.1c-.3,0-1.1.4-1.3.6-1.4,1.2-1.3,3.4.3,4.4.2.1.8.4,1,.4h3.1v-5.3ZM18.5,14.4c-2.1.2-3,2.8-1.7,4.4,1.3,1.6,4.1,1.1,4.7-.9s-1-3.7-3-3.4h0ZM14.9,21h-3c-.8,0-1.8.8-2.1,1.5-1.2,2.3,1.3,4.7,3.6,3.6.7-.3,1.5-1.3,1.5-2.1v-2.9h0Z"/>
</svg>