<svg width="36" height="32" viewBox="0 0 36 32" fill="none" xmlns="http://www.w3.org/2000/svg">
<rect x="1" y="1" width="34" height="30" rx="5" stroke="black" stroke-width="2"/>
<path d="M18 6.00005C17.6402 6.00005 17.2889 6.13146 17.0183 6.40215L15.01 8.43262C14.9014 8.49118 14.8101 8.57546 14.7429 8.6783L8.4059 15.0168C8.14597 15.2775 8 15.6307 8 15.9989C8 16.3671 8.14597 16.7202 8.4059 16.9809L17.0183 25.5963C17.2796 25.8549 17.6324 26 18 26C18.3676 26 18.7204 25.8549 18.9817 25.5963L27.5941 16.9809C27.854 16.7202 28 16.3671 28 15.9989C28 15.6307 27.854 15.2775 27.5941 15.0168L18.981 6.40143C18.8523 6.27275 18.6993 6.17098 18.5308 6.10207C18.3624 6.03315 18.182 5.99847 18 6.00005ZM18 7.45059L26.5453 15.9989L18 24.5471L9.4547 15.9989L15.3677 10.0846L16.6171 11.3344C16.5852 11.4582 16.5701 11.5858 16.5721 11.7137C16.5721 12.2407 16.8591 12.6928 17.286 12.9414V19.0564C16.8591 19.3049 16.5721 19.7563 16.5721 20.2841C16.5721 20.6629 16.7225 21.0262 16.9903 21.2941C17.2581 21.562 17.6213 21.7125 18 21.7125C18.3787 21.7125 18.7419 21.562 19.0097 21.2941C19.2775 21.0262 19.4279 20.6629 19.4279 20.2841C19.4279 19.757 19.1409 19.3049 18.714 19.0564V13.4549L20.9008 15.6418C20.8463 15.8529 20.8408 16.0737 20.8848 16.2872C20.9288 16.5007 21.0211 16.7014 21.1546 16.8737C21.2881 17.0461 21.4593 17.1856 21.655 17.2815C21.8507 17.3775 22.0658 17.4273 22.2837 17.4273C22.6623 17.4271 23.0253 17.2765 23.2929 17.0086C23.5606 16.7408 23.7109 16.3776 23.7109 15.9989C23.7111 15.7808 23.6613 15.5655 23.5654 15.3697C23.4696 15.1738 23.3301 15.0025 23.1578 14.8689C22.9855 14.7352 22.7849 14.6429 22.5714 14.5988C22.3579 14.5548 22.1371 14.5602 21.926 14.6147L19.3829 12.0708C19.4374 11.8597 19.4429 11.6389 19.3989 11.4253C19.3549 11.2118 19.2626 11.0112 19.1291 10.8388C18.9956 10.6665 18.8245 10.527 18.6287 10.431C18.433 10.3351 18.218 10.2852 18 10.2853C17.8724 10.2833 17.7452 10.2984 17.6216 10.3303L16.3722 9.0804L18 7.45059Z" fill="black"/>
</svg>
