<svg width="33" height="32" viewBox="0 0 33 32" fill="none" xmlns="http://www.w3.org/2000/svg">
<rect x="1" y="1" width="31" height="30" rx="5" stroke="black" stroke-width="2"/>
<path d="M13.4633 24.5C13.4633 24.5 12.7804 21.78 14.1462 20.42C14.1462 20.42 11.4146 20.42 9.36582 18.38C7.31709 16.34 8 12.26 9.36582 10.9C8.68291 8.86 10.0487 7.5 10.0487 7.5C10.0487 7.5 12.0975 7.5 13.4633 8.86C14.8291 8.18 18.2437 8.18 19.6095 8.86C20.9753 7.5 23.0241 7.5 23.0241 7.5C23.0241 7.5 24.3899 8.86 23.707 10.9C25.0728 12.26 25.7557 16.34 23.707 18.38C21.6582 20.42 18.9266 20.42 18.9266 20.42C20.2924 21.78 19.6095 24.5 19.6095 24.5M12.7804 23.82C10.7316 24.5 8.68291 23.14 8 22.46" stroke="black" stroke-width="2" stroke-linecap="round" stroke-linejoin="round"/>
</svg>
