<svg width="41" height="32" viewBox="0 0 41 32" fill="none" xmlns="http://www.w3.org/2000/svg">
<rect x="1" y="1" width="38.5833" height="30" rx="5" stroke="black" stroke-width="2"/>
<path opacity="0.2" d="M28 12.6668H22.1667V6.8335L28 12.6668Z" fill="black"/>
<path d="M28.8333 16V12.6667C28.8334 12.5572 28.8119 12.4488 28.7701 12.3476C28.7283 12.2465 28.6669 12.1545 28.5896 12.0771L22.7563 6.24375C22.6788 6.16639 22.5869 6.10504 22.4857 6.06322C22.3845 6.0214 22.2761 5.99991 22.1667 6H12.1667C11.7246 6 11.3007 6.17559 10.9882 6.48816C10.6756 6.80072 10.5 7.22464 10.5 7.66667V16C10.5 16.221 10.5878 16.433 10.7441 16.5893C10.9004 16.7455 11.1123 16.8333 11.3333 16.8333C11.5543 16.8333 11.7663 16.7455 11.9226 16.5893C12.0789 16.433 12.1667 16.221 12.1667 16V7.66667H21.3333V12.6667C21.3333 12.8877 21.4211 13.0996 21.5774 13.2559C21.7337 13.4122 21.9457 13.5 22.1667 13.5H27.1667V16C27.1667 16.221 27.2545 16.433 27.4107 16.5893C27.567 16.7455 27.779 16.8333 28 16.8333C28.221 16.8333 28.433 16.7455 28.5893 16.5893C28.7455 16.433 28.8333 16.221 28.8333 16ZM23 8.84479L25.9885 11.8333H23V8.84479ZM13.4167 20.1667V25.1667C13.4167 25.3877 13.3289 25.5996 13.1726 25.7559C13.0163 25.9122 12.8043 26 12.5833 26C12.3623 26 12.1504 25.9122 11.9941 25.7559C11.8378 25.5996 11.75 25.3877 11.75 25.1667V23.5H9.66667V25.1667C9.66667 25.3877 9.57887 25.5996 9.42259 25.7559C9.26631 25.9122 9.05435 26 8.83333 26C8.61232 26 8.40036 25.9122 8.24408 25.7559C8.0878 25.5996 8 25.3877 8 25.1667V20.1667C8 19.9457 8.0878 19.7337 8.24408 19.5774C8.40036 19.4211 8.61232 19.3333 8.83333 19.3333C9.05435 19.3333 9.26631 19.4211 9.42259 19.5774C9.57887 19.7337 9.66667 19.9457 9.66667 20.1667V21.8333H11.75V20.1667C11.75 19.9457 11.8378 19.7337 11.9941 19.5774C12.1504 19.4211 12.3623 19.3333 12.5833 19.3333C12.8043 19.3333 13.0163 19.4211 13.1726 19.5774C13.3289 19.7337 13.4167 19.9457 13.4167 20.1667ZM19.25 20.1667C19.25 20.3877 19.1622 20.5996 19.0059 20.7559C18.8496 20.9122 18.6377 21 18.4167 21H17.5833V25.1667C17.5833 25.3877 17.4955 25.5996 17.3393 25.7559C17.183 25.9122 16.971 26 16.75 26C16.529 26 16.317 25.9122 16.1607 25.7559C16.0045 25.5996 15.9167 25.3877 15.9167 25.1667V21H15.0833C14.8623 21 14.6504 20.9122 14.4941 20.7559C14.3378 20.5996 14.25 20.3877 14.25 20.1667C14.25 19.9457 14.3378 19.7337 14.4941 19.5774C14.6504 19.4211 14.8623 19.3333 15.0833 19.3333H18.4167C18.6377 19.3333 18.8496 19.4211 19.0059 19.5774C19.1622 19.7337 19.25 19.9457 19.25 20.1667ZM26.75 20.1667V25.1667C26.75 25.3877 26.6622 25.5996 26.5059 25.7559C26.3496 25.9122 26.1377 26 25.9167 26C25.6957 26 25.4837 25.9122 25.3274 25.7559C25.1711 25.5996 25.0833 25.3877 25.0833 25.1667V22.6667L24.0833 24C24.0057 24.1035 23.9051 24.1875 23.7893 24.2454C23.6736 24.3032 23.546 24.3333 23.4167 24.3333C23.2873 24.3333 23.1597 24.3032 23.044 24.2454C22.9283 24.1875 22.8276 24.1035 22.75 24L21.75 22.6667V25.1667C21.75 25.3877 21.6622 25.5996 21.5059 25.7559C21.3496 25.9122 21.1377 26 20.9167 26C20.6957 26 20.4837 25.9122 20.3274 25.7559C20.1711 25.5996 20.0833 25.3877 20.0833 25.1667V20.1667C20.0833 19.9918 20.1384 19.8213 20.2406 19.6794C20.3429 19.5375 20.4872 19.4314 20.6531 19.3761C20.8191 19.3208 20.9982 19.3191 21.1651 19.3712C21.3321 19.4234 21.4784 19.5267 21.5833 19.6667L23.4167 22.1115L25.25 19.6667C25.3549 19.5267 25.5012 19.4234 25.6682 19.3712C25.8351 19.3191 26.0143 19.3208 26.1802 19.3761C26.3461 19.4314 26.4904 19.5375 26.5927 19.6794C26.695 19.8213 26.75 19.9918 26.75 20.1667ZM32.5833 25.1667C32.5833 25.3877 32.4955 25.5996 32.3393 25.7559C32.183 25.9122 31.971 26 31.75 26H28.8333C28.6123 26 28.4004 25.9122 28.2441 25.7559C28.0878 25.5996 28 25.3877 28 25.1667V20.1667C28 19.9457 28.0878 19.7337 28.2441 19.5774C28.4004 19.4211 28.6123 19.3333 28.8333 19.3333C29.0543 19.3333 29.2663 19.4211 29.4226 19.5774C29.5789 19.7337 29.6667 19.9457 29.6667 20.1667V24.3333H31.75C31.971 24.3333 32.183 24.4211 32.3393 24.5774C32.4955 24.7337 32.5833 24.9457 32.5833 25.1667Z" fill="black"/>
</svg>
