<svg width="33" height="32" viewBox="0 0 33 32" fill="none" xmlns="http://www.w3.org/2000/svg">
<g clip-path="url(#clip0_139_2094)">
<path d="M5.47852 1H27.5215C30.0016 1 32 2.9945 32 5.44V26.5088C32 28.9543 30.0016 30.9488 27.5215 30.9488H5.47852C2.99844 30.9488 1 28.9543 1 26.5088V5.44C1 2.9945 2.99844 1 5.47852 1Z" stroke="black" stroke-width="2"/>
<path d="M15.9913 19.173H10.8776L9.83707 22.3824C9.82291 22.4409 9.78863 22.4927 9.74013 22.5288C9.69163 22.5649 9.63196 22.5831 9.5714 22.5802H6.98128C6.83364 22.5802 6.78199 22.4996 6.82634 22.3383L11.2539 9.67682C11.2981 9.54498 11.3424 9.3948 11.3867 9.22626C11.4447 8.93289 11.4743 8.6349 11.4752 8.33602C11.4722 8.31512 11.4741 8.2938 11.4808 8.27376C11.4876 8.25372 11.4989 8.23552 11.5139 8.22058C11.529 8.20564 11.5473 8.19438 11.5675 8.18769C11.5876 8.181 11.6091 8.17906 11.6302 8.18204H15.1501C15.2532 8.18204 15.3122 8.21873 15.3272 8.29212L20.3523 22.3603C20.3966 22.5071 20.3523 22.5804 20.2196 22.5802H17.3416C17.2922 22.5856 17.2425 22.573 17.2018 22.5447C17.1611 22.5164 17.1321 22.4743 17.1203 22.4264L15.9913 19.173ZM11.6745 16.4034H15.1722L15.1224 16.2399L15.0423 15.9811L14.9852 15.7993L14.8941 15.5131L14.7003 14.9106L14.5299 14.3765L14.0874 12.9851C13.9772 12.6392 13.8715 12.292 13.7703 11.9434L13.6893 11.6606L13.5947 11.3261L13.4503 10.8077L13.4232 10.71H13.4012C13.2904 11.2377 13.1555 11.76 12.997 12.2755L12.6685 13.3246L12.4878 13.9042L12.3054 14.4909C12.2725 14.5969 12.2396 14.7017 12.2068 14.8053L12.1088 15.1122L12.0113 15.412L11.9144 15.7043L11.818 15.9894C11.786 16.0833 11.7541 16.1759 11.7222 16.2672L11.6745 16.4034ZM23.3406 10.5122C23.1149 10.5211 22.8897 10.4827 22.6799 10.3994C22.4701 10.316 22.2804 10.1897 22.1231 10.0286C21.9664 9.86038 21.8446 9.66312 21.7648 9.4481C21.685 9.23308 21.6488 9.00454 21.6582 8.77558C21.6501 8.5489 21.6903 8.3231 21.7762 8.1129C21.862 7.90271 21.9915 7.71285 22.1563 7.55574C22.474 7.25284 22.8972 7.08333 23.3377 7.08252L23.3849 7.08303C23.9162 7.08303 24.3332 7.24056 24.6358 7.55561C24.7885 7.71935 24.9071 7.91139 24.985 8.12073C25.0628 8.33006 25.0984 8.55259 25.0895 8.77558C25.0989 9.00547 25.0616 9.23488 24.9798 9.45017C24.8981 9.66545 24.7735 9.86219 24.6136 10.0287C24.4522 10.1866 24.2606 10.3109 24.0501 10.3942C23.8396 10.4775 23.6145 10.5182 23.388 10.5138L23.3406 10.5122ZM21.8131 22.3603V11.8531C21.813 11.7212 21.8721 11.6552 21.9902 11.6552H24.7132C24.8312 11.6552 24.8903 11.7212 24.8904 11.8531V22.3603C24.8904 22.5071 24.8313 22.5804 24.7132 22.5802H22.0124C21.8866 22.5802 21.8204 22.5145 21.8138 22.3829L21.8131 22.3603Z" fill="black"/>
</g>
<defs>
<clipPath id="clip0_139_2094">
<rect width="33" height="32" fill="white"/>
</clipPath>
</defs>
</svg>
