<svg width="32" height="32" viewBox="0 0 32 32" fill="none" xmlns="http://www.w3.org/2000/svg">
<rect x="1" y="1" width="30" height="30" rx="5" stroke="black" stroke-width="2"/>
<path d="M23.5 17.8096V24H21.0706V18.224C21.0706 16.7727 20.5744 15.7827 19.3334 15.7827C18.3859 15.7827 17.8215 16.4505 17.5738 17.0956C17.4832 17.3263 17.46 17.6477 17.46 17.9706V24H14.5C14.5 24 14.569 14.2181 14.5225 13.2039H17.46V14.7341L17.4375 14.7693H17.46V14.7341C17.9153 14 19 13.5 20.5 13.5C22 13.5 23.5 14.4941 23.5 17.8096ZM10.0607 8C9.11756 8 8.5 8.64763 8.5 9.49966C8.5 10.3328 9.09951 11 10.0246 11H10.0426C11.005 11 11.6026 10.3328 11.6026 9.49966C11.5859 8.64763 11.005 8 10.0607 8ZM8.70362 24H11.5V13.2039L8.70362 13.2039V24Z" fill="black"/>
</svg>
