<svg width="33" height="32" viewBox="0 0 33 32" fill="none" xmlns="http://www.w3.org/2000/svg">
<g clip-path="url(#clip0_139_2096)">
<path d="M5.47852 1H27.5215C30.0016 1 32 2.9945 32 5.44V26.5088C32 28.9543 30.0016 30.9488 27.5215 30.9488H5.47852C2.99844 30.9488 1 28.9543 1 26.5088V5.44C1 2.9945 2.99844 1 5.47852 1Z" stroke="black" stroke-width="2"/>
<path d="M7.43066 22.4044V8.35796C7.43066 8.25547 7.47496 8.20419 7.56357 8.2041L7.70369 8.20372L7.9432 8.20116L8.27603 8.19463L9.39107 8.17121L10.5867 8.14919C11.0072 8.14194 11.4241 8.13827 11.8373 8.13818C12.9588 8.13818 13.9033 8.27741 14.6709 8.55585C15.3635 8.78827 15.995 9.17125 16.5195 9.67687C16.9641 10.1151 17.3078 10.6438 17.5267 11.2267C17.7337 11.7939 17.8387 12.3929 17.8367 12.9962C17.8367 14.1687 17.5637 15.1359 17.0176 15.8978C16.4835 16.6411 15.7385 17.2095 14.8777 17.5306L14.8038 17.5574C13.905 17.8904 12.9096 18.0107 11.8179 18.0182L11.6482 18.0188L11.3965 18.0175L11.2695 18.0157L11.128 18.0124L11.0426 18.009L10.9908 18.0063L10.8633 18.0017L10.7075 17.9985L10.4729 17.9969L10.4206 17.9967V22.3824C10.4245 22.4093 10.422 22.4367 10.4134 22.4625C10.4048 22.4882 10.3902 22.5117 10.3709 22.5309C10.3515 22.5501 10.3279 22.5645 10.302 22.5731C10.276 22.5817 10.2484 22.5841 10.2214 22.5803H7.58574C7.48227 22.5804 7.43058 22.5218 7.43066 22.4044ZM10.4208 10.8419V15.4233C10.6124 15.4381 10.7894 15.4454 10.9519 15.4453H11.6825C12.1862 15.4436 12.687 15.3691 13.1692 15.2243L13.2653 15.1944C13.704 15.0652 14.096 14.8133 14.3944 14.4689C14.6718 14.1441 14.8155 13.6964 14.8255 13.126L14.8261 13.0621C14.8377 12.6369 14.7264 12.2173 14.505 11.8531C14.2725 11.5009 13.9363 11.2283 13.5421 11.0727C13.0275 10.874 12.4778 10.7806 11.926 10.798L11.6453 10.7988L11.4681 10.8003L11.2991 10.8025L11.0607 10.8071L10.8866 10.812L10.7963 10.8153L10.6755 10.8209L10.5726 10.8272L10.514 10.8318L10.4633 10.8367L10.441 10.8392L10.4208 10.8419ZM26.3961 14.5903C26.0099 14.3933 25.6003 14.2453 25.1769 14.1497L25.079 14.1287C24.6132 14.0226 24.1376 13.9641 23.6598 13.9542L23.5405 13.9528C23.2604 13.9453 22.9807 13.9786 22.7103 14.0518C22.5383 14.0899 22.3853 14.1872 22.2785 14.3265C22.2063 14.438 22.1679 14.5677 22.1679 14.7002C22.1719 14.8288 22.2186 14.9524 22.3006 15.0518C22.4182 15.1883 22.5594 15.3026 22.7177 15.3894L22.7656 15.4146C23.0812 15.5833 23.4065 15.7338 23.7396 15.8652C24.4825 16.1123 25.1924 16.4481 25.8537 16.8654C26.3042 17.1477 26.677 17.5367 26.9386 17.9975C27.1584 18.4338 27.2685 18.9165 27.2595 19.4042C27.2727 20.0484 27.0873 20.6812 26.7282 21.2179C26.3437 21.7625 25.8096 22.186 25.1896 22.4377C24.5402 22.721 23.7428 22.8674 22.7974 22.877L22.6992 22.8775C22.1131 22.8833 21.5279 22.8324 20.9518 22.7254L20.8285 22.7016C20.3435 22.6133 19.8713 22.4656 19.4228 22.262C19.3777 22.2389 19.3396 22.2043 19.3124 22.1618C19.2851 22.1193 19.2698 22.0704 19.2679 22.02V19.6241C19.2652 19.6009 19.269 19.5773 19.2787 19.556C19.2885 19.5347 19.3039 19.5165 19.3233 19.5032C19.3423 19.4925 19.3641 19.4878 19.3859 19.4897C19.4076 19.4917 19.4283 19.5002 19.445 19.5142C19.9746 19.8243 20.5497 20.0505 21.1495 20.1846C21.6782 20.3163 22.2206 20.3864 22.7656 20.3935C23.282 20.3935 23.662 20.3276 23.9057 20.1957C24.0156 20.1456 24.1086 20.065 24.1735 19.9636C24.2383 19.8621 24.2722 19.7443 24.271 19.6241C24.271 19.4338 24.1603 19.2507 23.9389 19.0746C23.8461 19.0009 23.713 18.9207 23.5397 18.834L23.4568 18.7935L23.3684 18.7522L23.322 18.7312L23.2248 18.6885L23.1741 18.6667L23.0684 18.6227L23.0134 18.6003L22.8992 18.5548L22.8399 18.5318L22.717 18.4848L22.5885 18.4371C21.8933 18.197 21.2342 17.8642 20.6292 17.4479C20.1965 17.1491 19.8402 16.7539 19.5888 16.2938C19.3712 15.8606 19.2612 15.382 19.2679 14.898C19.2665 14.3164 19.4274 13.7457 19.7327 13.2494C20.0808 12.7028 20.5804 12.2676 21.1717 11.9965C21.8209 11.6743 22.6326 11.513 23.6067 11.5128C24.1773 11.5082 24.7473 11.5487 25.3114 11.6337C25.7198 11.6852 26.1192 11.7925 26.4981 11.9525C26.5591 11.9699 26.6082 12.0145 26.6309 12.0734C26.6459 12.127 26.6533 12.1825 26.653 12.2383V14.4584C26.6563 14.5109 26.6309 14.5612 26.5866 14.5903C26.557 14.6049 26.5244 14.6125 26.4914 14.6125C26.4583 14.6125 26.4257 14.6049 26.3961 14.5903Z" fill="black"/>
</g>
<defs>
<clipPath id="clip0_139_2096">
<rect width="33" height="32" fill="white"/>
</clipPath>
</defs>
</svg>
