<svg width="24" height="25" viewBox="0 0 24 25" fill="none" xmlns="http://www.w3.org/2000/svg">
<path d="M20.34 9.81988L6.34 2.81988C5.78749 2.54489 5.16362 2.44699 4.55344 2.53954C3.94326 2.63208 3.37646 2.91055 2.93033 3.337C2.48421 3.76345 2.18046 4.31711 2.0605 4.92249C1.94054 5.52788 2.0102 6.15554 2.26 6.71988L4.66 12.0899C4.71446 12.2197 4.74251 12.3591 4.74251 12.4999C4.74251 12.6407 4.71446 12.7801 4.66 12.9099L2.26 18.2799C2.0567 18.7366 1.97076 19.2369 2.00998 19.7353C2.0492 20.2336 2.21235 20.7143 2.48459 21.1336C2.75682 21.5529 3.12953 21.8975 3.56883 22.1361C4.00812 22.3747 4.50009 22.4998 5 22.4999C5.46823 22.4952 5.92949 22.3859 6.35 22.1799L20.35 15.1799C20.8466 14.9301 21.264 14.5472 21.5557 14.074C21.8474 13.6007 22.0018 13.0558 22.0018 12.4999C22.0018 11.944 21.8474 11.399 21.5557 10.9258C21.264 10.4526 20.8466 10.0697 20.35 9.81988H20.34ZM19.45 13.3899L5.45 20.3899C5.26617 20.4782 5.05973 20.5081 4.85839 20.4757C4.65705 20.4434 4.47041 20.3502 4.32352 20.2087C4.17662 20.0673 4.07648 19.8843 4.03653 19.6843C3.99658 19.4843 4.01873 19.2769 4.1 19.0899L6.49 13.7199C6.52094 13.6482 6.54766 13.5747 6.57 13.4999H13.46C13.7252 13.4999 13.9796 13.3945 14.1671 13.207C14.3546 13.0195 14.46 12.7651 14.46 12.4999C14.46 12.2347 14.3546 11.9803 14.1671 11.7928C13.9796 11.6052 13.7252 11.4999 13.46 11.4999H6.57C6.54766 11.4251 6.52094 11.3516 6.49 11.2799L4.1 5.90988C4.01873 5.72285 3.99658 5.51543 4.03653 5.31545C4.07648 5.11547 4.17662 4.93249 4.32352 4.79103C4.47041 4.64958 4.65705 4.55641 4.85839 4.52404C5.05973 4.49166 5.26617 4.52161 5.45 4.60988L19.45 11.6099C19.6138 11.6938 19.7513 11.8213 19.8473 11.9783C19.9433 12.1354 19.994 12.3158 19.994 12.4999C19.994 12.6839 19.9433 12.8644 19.8473 13.0214C19.7513 13.1785 19.6138 13.306 19.45 13.3899Z" fill="#1B1B1B"/>
</svg>
