<svg width="33" height="32" viewBox="0 0 33 32" fill="none" xmlns="http://www.w3.org/2000/svg">
<path d="M7.29688 1H25.7031C29.2097 1.00021 31.9999 3.74938 32 7.0752V24.9219C32.0031 28.2508 29.2127 31 25.7061 31H7.29688C3.79034 30.9998 1.00009 28.2506 1 24.9248V7.0752C1.00009 3.74938 3.79034 1.00021 7.29688 1Z" stroke="black" stroke-width="2"/>
<path d="M15.3149 13.9599C11.7547 14.9867 5.46607 17.3393 5.16394 26.8855C6.30082 21.7455 9.10408 21.0086 14.2558 19.8338C19.4076 18.6621 22.2078 17.3393 25.3163 13.7394C28.4216 10.1396 27.3626 4.99951 27.3626 4.99951C27.3626 7.79 25.3163 9.62617 23.3477 10.9489C21.3792 12.2717 18.875 12.9331 15.3149 13.9599Z" stroke="black" stroke-width="0.8" stroke-linejoin="round"/>
<path d="M5.2015 26.1638C5.18593 26.4023 5.17347 26.6409 5.16412 26.8855C5.39461 24.0226 8.04525 20.3502 11.2254 19.5439C13.0133 19.0879 15.7386 19.1453 18.4142 18.656C21.3514 17.593 23.5784 16.1373 25.466 13.7606C25.7151 13.4495 25.9332 13.1203 26.1263 12.7791C27.5279 9.19129 27.3597 4.99951 27.3597 4.99951C27.3597 7.79 25.3133 9.62617 23.3448 10.9489C22.5256 11.4986 18.5778 14.1028 17.5313 14.4985" stroke="black" stroke-width="0.8" stroke-linejoin="round"/>
<path d="M5.20757 26.043C5.18888 26.3178 5.1733 26.5986 5.16396 26.8855C5.14527 26.6258 5.16084 26.3419 5.20757 26.043ZM5.20757 26.043C5.84297 17.1973 11.8606 14.9565 15.3149 13.9599C18.875 12.9331 21.3761 12.2717 23.3447 10.9489C25.3132 9.62617 27.3595 7.79 27.3595 4.99951C27.3595 4.99951 28.4217 10.1396 25.3132 13.7394" stroke="black" stroke-width="0.8" stroke-linejoin="round"/>
<path d="M20.5634 12.3321C21.6068 11.9365 22.5225 11.5016 23.3448 10.9489C25.3133 9.62617 27.3597 7.79 27.3597 4.99951C27.3597 4.99951 28.5984 10.5466 25.2656 13.9985C21.9298 17.4504 18.0435 16.6779 13.1939 17.5597C8.34738 18.4416 5.39461 24.0196 5.16412 26.8855C5.17347 26.6379 5.18593 26.3993 5.2015 26.1638" stroke="black" stroke-width="0.8" stroke-linejoin="round"/>
<path d="M16.6043 14.6968C7.73977 16.3125 5.08913 23.9018 5.16388 26.8886C5.39126 24.0256 7.96714 20.7187 11.2999 18.955C16.2243 16.5299 21.3761 17.8527 24.9362 14.3283C28.4963 10.804 27.3595 4.99951 27.3595 4.99951C27.3595 7.79 26.2973 10.4355 24.4036 11.9788C22.5129 13.519 18.7254 14.3042 16.6043 14.6968Z" stroke="black" stroke-width="0.8" stroke-linejoin="round"/>
</svg>
