<svg width="32" height="32" viewBox="0 0 32 32" fill="none" xmlns="http://www.w3.org/2000/svg">
<rect x="1" y="1" width="30" height="30" rx="5" stroke="black" stroke-width="2"/>
<path d="M28 15.689C28 14.099 26.009 12.592 22.956 11.658C23.661 8.547 23.348 6.071 21.968 5.278C21.6335 5.09095 21.2551 4.9967 20.872 5.005V6.095C21.097 6.095 21.278 6.14 21.43 6.223C22.095 6.605 22.384 8.057 22.159 9.926C22.105 10.386 22.017 10.87 21.909 11.364C20.8865 11.1185 19.8489 10.9404 18.803 10.831C18.1795 9.97155 17.4997 9.15442 16.768 8.385C18.363 6.903 19.86 6.091 20.878 6.091V5C19.532 5 17.771 5.959 15.99 7.622C14.21 5.97 12.448 5.02 11.103 5.02V6.11C12.116 6.11 13.618 6.918 15.213 8.39C14.528 9.11 13.843 9.926 13.192 10.831C12.1439 10.9389 11.1045 11.1186 10.081 11.369C9.969 10.8797 9.884 10.407 9.826 9.951C9.596 8.081 9.88 6.629 10.541 6.243C10.687 6.155 10.878 6.115 11.103 6.115V5.025C10.693 5.025 10.32 5.113 9.998 5.298C8.623 6.091 8.315 8.561 9.024 11.663C5.981 12.603 4 14.104 4 15.689C4 17.279 5.991 18.786 9.044 19.719C8.339 22.831 8.652 25.307 10.032 26.099C10.35 26.285 10.722 26.373 11.132 26.373C12.478 26.373 14.239 25.414 16.02 23.751C17.8 25.404 19.561 26.353 20.907 26.353C21.293 26.3602 21.6741 26.2657 22.012 26.079C23.387 25.287 23.695 22.817 22.986 19.715C26.019 18.781 28 17.274 28 15.689ZM21.63 12.426C21.44 13.0799 21.2198 13.7246 20.97 14.358C20.5618 13.5624 20.1129 12.7884 19.625 12.039C20.321 12.141 20.9897 12.27 21.631 12.426M19.391 17.636C19.0247 18.2754 18.6313 18.899 18.212 19.505C16.7442 19.6341 15.268 19.6358 13.8 19.51C12.9581 18.3071 12.2217 17.0337 11.599 15.704C12.2203 14.371 12.9536 13.093 13.791 11.884C15.2584 11.7546 16.7343 11.7526 18.202 11.878C18.6087 12.4613 19.0033 13.0813 19.386 13.738C19.7573 14.3787 20.0967 15.0273 20.404 15.684C20.093 16.3482 19.755 16.9994 19.391 17.636ZM20.97 17C21.234 17.656 21.46 18.311 21.645 18.947C21.005 19.104 20.329 19.236 19.63 19.338C20.1153 18.5815 20.5625 17.8012 20.97 17ZM16.01 22.22C15.554 21.7493 15.1007 21.2273 14.65 20.654C15.09 20.674 15.54 20.689 15.995 20.689C16.4557 20.6897 16.909 20.678 17.355 20.654C16.915 21.227 16.46 21.75 16.01 22.22ZM12.37 19.338C11.6957 19.2405 11.0263 19.1117 10.364 18.952C10.545 18.321 10.77 17.67 11.024 17.02C11.225 17.41 11.436 17.802 11.666 18.194C11.896 18.5853 12.1307 18.9667 12.37 19.338ZM15.985 9.158C16.441 9.62867 16.8943 10.1507 17.345 10.724C16.905 10.704 16.455 10.689 16 10.689C15.5393 10.6883 15.086 10.7 14.64 10.724C15.08 10.151 15.535 9.628 15.985 9.158ZM12.365 12.04C11.8798 12.7949 11.4326 13.5735 11.025 14.373C10.7683 13.7354 10.543 13.0857 10.35 12.426C10.99 12.274 11.666 12.142 12.365 12.04ZM7.938 18.164C6.206 17.426 5.086 16.457 5.086 15.689C5.086 14.921 6.206 13.947 7.938 13.214C8.358 13.033 8.818 12.871 9.293 12.72C9.572 13.678 9.939 14.676 10.393 15.699C9.96389 16.661 9.60137 17.6513 9.308 18.663C8.84351 18.519 8.38631 18.3524 7.938 18.164ZM10.57 25.154C9.905 24.774 9.616 23.32 9.841 21.452C9.895 20.992 9.983 20.507 10.091 20.013C11.049 20.248 12.096 20.429 13.197 20.547C13.8205 21.4065 14.5003 22.2236 15.232 22.993C13.637 24.475 12.14 25.287 11.122 25.287C10.9301 25.2878 10.7408 25.2425 10.57 25.155M22.174 21.428C22.404 23.297 22.12 24.75 21.459 25.136C21.313 25.224 21.122 25.263 20.897 25.263C19.884 25.263 18.382 24.456 16.787 22.983C17.516 22.2171 18.1912 21.4018 18.808 20.543C19.8561 20.4351 20.8955 20.2554 21.919 20.005C22.033 20.4983 22.118 20.9727 22.174 21.428ZM24.057 18.165C23.637 18.346 23.177 18.508 22.702 18.659C22.4029 17.6423 22.0354 16.6471 21.602 15.68C22.052 14.663 22.413 13.67 22.687 12.716C23.1723 12.8673 23.6307 13.0337 24.062 13.215C25.794 13.953 26.914 14.922 26.914 15.69C26.909 16.458 25.789 17.432 24.057 18.165Z" fill="black"/>
<path d="M15.995 17.9249C16.588 17.9249 17.1568 17.6893 17.5761 17.27C17.9954 16.8506 18.231 16.2819 18.231 15.6889C18.231 15.0959 17.9954 14.5271 17.5761 14.1078C17.1568 13.6885 16.588 13.4529 15.995 13.4529C15.402 13.4529 14.8332 13.6885 14.4139 14.1078C13.9946 14.5271 13.759 15.0959 13.759 15.6889C13.759 16.2819 13.9946 16.8506 14.4139 17.27C14.8332 17.6893 15.402 17.9249 15.995 17.9249Z" fill="black"/>
</svg>
