<svg width="37" height="32" viewBox="0 0 37 32" fill="none" xmlns="http://www.w3.org/2000/svg">
<rect x="0.999634" y="1" width="34.6211" height="30" rx="5" stroke="black" stroke-width="2"/>
<path d="M23.1469 7.07373H21.4251C21.2633 7.07365 21.104 7.11419 20.9619 7.19165C20.8198 7.26911 20.6995 7.381 20.6119 7.51706L18.3102 11.0972L16.0085 7.51706C15.921 7.38118 15.8008 7.26941 15.659 7.19196C15.5171 7.11451 15.3581 7.07386 15.1965 7.07373H8.96671C8.79636 7.07364 8.62902 7.11857 8.48163 7.20397C8.33424 7.28937 8.21204 7.4122 8.1274 7.56003C8.04276 7.70785 7.99869 7.87542 7.99965 8.04576C8.00061 8.2161 8.04658 8.38316 8.13288 8.53002L17.4763 24.4487C17.5616 24.5941 17.6834 24.7147 17.8297 24.7985C17.9759 24.8823 18.1416 24.9264 18.3102 24.9264C18.4787 24.9264 18.6444 24.8823 18.7906 24.7985C18.9369 24.7147 19.0587 24.5941 19.144 24.4487L28.4874 8.53002C28.5738 8.38316 28.6197 8.2161 28.6207 8.04576C28.6216 7.87542 28.5776 7.70785 28.4929 7.56003C28.4083 7.4122 28.2861 7.28937 28.1387 7.20397C27.9913 7.11857 27.824 7.07364 27.6536 7.07373H23.1469ZM12.9103 9.00686L18.3102 18.264L23.71 9.00686H25.9654L18.3102 22.049L10.655 9.00686H12.9103Z" fill="black"/>
</svg>
